<?xml version="1.0" standalone="no"?>
<!DOCTYPE svg PUBLIC "-//W3C//DTD SVG 20010904//EN"
 "http://www.w3.org/TR/2001/REC-SVG-20010904/DTD/svg10.dtd">
<svg version="1.0" xmlns="http://www.w3.org/2000/svg"
 width="700.000000pt" height="700.000000pt" viewBox="0 0 700.000000 700.000000"
 preserveAspectRatio="xMidYMid meet">
<metadata>
Created by potrace 1.11, written by Peter Selinger 2001-2013
</metadata>
<g transform="translate(0.000000,700.000000) scale(0.100000,-0.100000)"
fill="#000000" stroke="none">
<path d="M3215 6989 c-745 -64 -1437 -353 -1995 -835 -551 -475 -938 -1101
-1114 -1799 -73 -291 -101 -529 -101 -860 1 -404 50 -722 171 -1090 254 -772
784 -1445 1476 -1876 447 -278 924 -443 1483 -511 130 -16 600 -16 730 0 655
80 1228 304 1720 673 652 488 1104 1162 1305 1944 78 305 104 522 104 865 0
268 -7 362 -45 588 -175 1047 -830 1965 -1773 2486 -580 319 -1297 471 -1961
415z m285 -1698 c0 -12 -229 -1141 -236 -1163 -5 -17 13 -18 290 -18 163 0
296 2 296 4 0 4 214 1056 230 1134 l12 52 669 0 c630 0 669 -1 669 -17 0 -17
-705 -3448 -716 -3485 -5 -17 -46 -18 -670 -18 -614 0 -664 1 -664 17 0 9 59
297 130 640 72 342 130 627 130 633 0 6 -101 10 -294 10 -272 0 -295 -1 -300
-17 -3 -10 -64 -301 -136 -648 -72 -346 -132 -630 -133 -632 -8 -7 -1532 -681
-1535 -678 -3 3 892 4137 904 4178 5 16 46 17 680 17 385 0 674 -4 674 -9z"/>
</g>
</svg>
